#N canvas 488 245 751 537 10;
#X obj 72 97 dac~;
#X msg 227 98 \; pd dsp 1;
#X obj 207 44 loadbang;
#X obj 227 71 del 100;
#X text 301 71 Why we add a delay here? Answer : http://puredata.info/docs/faq/why-doesn-t-audio-work-when-i-start-pd-in-nogui-mode
;
#X obj 45 62 osc~ 220;
#X obj 103 62 osc~ 330;
#X connect 2 0 3 0;
#X connect 3 0 1 0;
#X connect 5 0 0 0;
#X connect 6 0 0 1;
