#N canvas 669 263 751 537 10;
#X obj 200 432 dac~;
#X obj 365 253 osc~ 200;
#X obj 478 253 osc~;
#X obj 284 251 osc~;
#X obj 109 262 osc~ 200;
#X obj 196 261 osc~;
#X obj 28 260 osc~;
#X obj 209 390 *~ 1;
#X msg 139 74 \; pd dsp 1;
#X obj 119 20 loadbang;
#X obj 139 47 del 100;
#X text 213 47 Why we add a delay here? Answer : http://puredata.info/docs/faq/why-doesn-t-audio-work-when-i-start-pd-in-nogui-mode
;
#X connect 1 0 7 0;
#X connect 2 0 7 0;
#X connect 3 0 7 0;
#X connect 4 0 7 0;
#X connect 5 0 7 0;
#X connect 6 0 7 0;
#X connect 7 0 0 0;
#X connect 7 0 0 1;
#X connect 9 0 10 0;
#X connect 10 0 8 0;
