#N canvas 519 79 901 668 10;
#X msg 326 55 \; pd dsp 1;
#X obj 306 1 loadbang;
#X obj 326 28 del 100;
#X text 400 28 Why we add a delay here? Answer : http://puredata.info/docs/faq/why-doesn-t-audio-work-when-i-start-pd-in-nogui-mode
;
#X obj 104 268 osc~ 220;
#X floatatom 129 229 5 0 0 0 - - -;
#X obj 102 199 random 500;
#X obj 95 167 metro 125;
#X obj 281 365 *~ 1;
#X obj 51 270 osc~;
#X obj 162 268 osc~;
#X obj 241 136 bng 15 250 50 0 empty empty empty 17 7 0 10 -262144
-1 -1;
#X obj 395 158 metro 500;
#X floatatom 429 220 5 0 0 0 - - -;
#X obj 402 190 random 300;
#X obj 426 271 osc~ 200;
#X obj 246 271 osc~;
#X obj 343 273 osc~;
#X obj 268 426 dac~;
#X connect 1 0 2 0;
#X connect 2 0 0 0;
#X connect 2 0 11 0;
#X connect 4 0 8 0;
#X connect 5 0 4 0;
#X connect 5 0 9 0;
#X connect 5 0 10 0;
#X connect 6 0 5 0;
#X connect 7 0 6 0;
#X connect 8 0 18 0;
#X connect 8 0 18 1;
#X connect 9 0 8 0;
#X connect 10 0 8 0;
#X connect 11 0 7 0;
#X connect 11 0 12 0;
#X connect 12 0 14 0;
#X connect 13 0 15 0;
#X connect 13 0 16 0;
#X connect 13 0 17 0;
#X connect 14 0 13 0;
#X connect 15 0 8 0;
#X connect 16 0 8 0;
#X connect 17 0 8 0;
