#N canvas 363 128 901 668 10;
#X msg 326 55 \; pd dsp 1;
#X obj 306 1 loadbang;
#X text 400 28 Why we add a delay here? Answer : http://puredata.info/docs/faq/why-doesn-t-audio-work-when-i-start-pd-in-nogui-mode
;
#X obj 199 70 osc~ 220;
#X obj 201 127 *~ 1;
#X obj 188 188 dac~;
#X obj 326 28 del 1000;
#X connect 1 0 6 0;
#X connect 3 0 4 0;
#X connect 4 0 5 0;
#X connect 4 0 5 1;
#X connect 6 0 0 0;
