#N canvas 253 229 470 326 10;
#X obj 225 36 osc~;
#X obj 225 -131 loadbang;
#X obj 216 116 mp3cast~;
#X msg 46 -66 passwd hackme;
#X msg 46 -44 icecast2;
#X msg 46 -20 mountpoint raspi;
#X msg 46 2 connect localhost 8000;
#X msg 47 32 disconnect;
#X obj 330 -94 del 150;
#X msg 330 -61 \; pd dsp 1;
#X floatatom 310 12 5 0 0 0 - - -;
#X floatatom 285 -28 5 0 0 0 - - -;
#X obj 225 3 + 200;
#X obj 225 -63 random 400;
#X obj 224 -98 metro 500;
#X connect 0 0 2 0;
#X connect 0 0 2 1;
#X connect 1 0 8 0;
#X connect 1 0 14 0;
#X connect 1 0 3 0;
#X connect 3 0 2 0;
#X connect 3 0 4 0;
#X connect 4 0 2 0;
#X connect 4 0 5 0;
#X connect 5 0 2 0;
#X connect 5 0 6 0;
#X connect 6 0 2 0;
#X connect 7 0 2 0;
#X connect 8 0 9 0;
#X connect 12 0 10 0;
#X connect 12 0 0 0;
#X connect 13 0 11 0;
#X connect 13 0 12 0;
#X connect 14 0 13 0;
