#N canvas 71 36 1369 842 10;
#X obj 119 45 100;
#X obj 163 47 200;
#X obj 198 48 300;
#X obj 231 46 400;
#X obj 266 47 500;
#X obj 307 46 600;
#X obj 345 47 700;
#X obj 378 51 800;
#X obj 175 121 osc~;
#X obj 157 308 dac~;
#X obj 167 172 *~ 0.7;
#X obj 122 9 hsl 128 15 0 127 0 0 empty empty empty -2 -8 0 10 -262144
-1 -1 4200 1;
#X obj 17 -13 loadbang;
#X msg 19 24 \; pd dsp 1;
#X obj 144 237 freeverb~;
#X msg 323 186 wet \$1;
#X msg 280 333 dry \$1;
#X obj 324 157 hsl 64 15 0 1 0 0 empty empty empty -2 -8 0 10 -262144
-1 -1 296 1;
#X obj 283 301 hsl 64 15 0 1 0 0 empty empty empty -2 -8 0 10 -262144
-1 -1 1399 1;
#X obj 69 211 vu 15 120 empty empty -1 -8 0 10 -66577 -1 1 0;
#X floatatom 404 191 5 0 0 0 - - -;
#X floatatom 365 331 5 0 0 0 - - -;
#X floatatom 178 32 5 0 0 0 - - -;
#X obj 141 -56 loadbang;
#X obj 282 242 loadbang;
#X obj 301 98 loadbang;
#X msg 143 -27 42;
#X msg 298 128 0.047;
#X msg 279 262 0.222;
#X obj 460 388 mp3cast~;
#X msg 511 319 disconnect;
#X msg 510 221 passwd hackme;
#X msg 510 243 icecast2;
#X msg 510 267 mountpoint houseFM;
#X msg 510 289 connect localhost 8000;
#X connect 0 0 8 0;
#X connect 1 0 8 0;
#X connect 2 0 8 0;
#X connect 3 0 8 0;
#X connect 4 0 8 0;
#X connect 5 0 8 0;
#X connect 6 0 8 0;
#X connect 7 0 8 0;
#X connect 8 0 10 0;
#X connect 10 0 14 0;
#X connect 10 0 14 1;
#X connect 11 0 0 0;
#X connect 11 0 22 0;
#X connect 12 0 13 0;
#X connect 14 0 29 0;
#X connect 14 1 29 1;
#X connect 15 0 14 0;
#X connect 16 0 14 0;
#X connect 17 0 15 0;
#X connect 17 0 20 0;
#X connect 18 0 16 0;
#X connect 18 0 21 0;
#X connect 23 0 26 0;
#X connect 23 0 31 0;
#X connect 24 0 28 0;
#X connect 25 0 27 0;
#X connect 26 0 11 0;
#X connect 27 0 17 0;
#X connect 28 0 18 0;
#X connect 30 0 29 0;
#X connect 31 0 29 0;
#X connect 31 0 32 0;
#X connect 32 0 29 0;
#X connect 32 0 33 0;
#X connect 33 0 29 0;
#X connect 33 0 34 0;
#X connect 34 0 29 0;
