#N canvas 689 168 1061 524 10;
#X obj 49 167 arduino 0;
#N canvas 2559 434 450 300 analog-sensor-readings 0;
#X obj 27 29 route 0 1 2 3 4 5 6 7;
#N canvas 2083 146 499 396 display 0;
#X obj 6 7 inlet;
#X obj 6 28 mapping/resample 100;
#X obj 6 50 outlet;
#X obj 54 50 inlet;
#X obj 54 71 mapping/resample 100;
#X obj 54 93 outlet;
#X obj 103 93 inlet;
#X obj 103 114 mapping/resample 100;
#X obj 103 136 outlet;
#X obj 151 136 inlet;
#X obj 151 157 mapping/resample 100;
#X obj 151 179 outlet;
#X obj 200 179 inlet;
#X obj 200 200 mapping/resample 100;
#X obj 200 222 outlet;
#X obj 247 222 inlet;
#X obj 247 243 mapping/resample 100;
#X obj 247 265 outlet;
#X obj 295 265 inlet;
#X obj 295 286 mapping/resample 100;
#X obj 295 308 outlet;
#X obj 345 308 inlet;
#X obj 345 329 mapping/resample 100;
#X obj 345 351 outlet;
#X obj 60 290 receive ARDUINO_TEST_RESET;
#X connect 0 0 1 0;
#X connect 1 0 2 0;
#X connect 3 0 4 0;
#X connect 4 0 5 0;
#X connect 6 0 7 0;
#X connect 7 0 8 0;
#X connect 9 0 10 0;
#X connect 10 0 11 0;
#X connect 12 0 13 0;
#X connect 13 0 14 0;
#X connect 15 0 16 0;
#X connect 16 0 17 0;
#X connect 18 0 19 0;
#X connect 19 0 20 0;
#X connect 21 0 22 0;
#X connect 22 0 23 0;
#X connect 24 0 22 0;
#X connect 24 0 19 0;
#X connect 24 0 16 0;
#X connect 24 0 13 0;
#X connect 24 0 10 0;
#X connect 24 0 7 0;
#X connect 24 0 4 0;
#X connect 24 0 1 0;
#X restore 28 76 pd display values without pegging the CPU;
#X obj 25 129 outlet;
#X obj 70 129 outlet;
#X obj 115 131 outlet;
#X obj 160 131 outlet;
#X obj 207 133 outlet;
#X obj 252 133 outlet;
#X obj 26 1 inlet;
#X connect 0 0 1 0;
#X connect 0 1 1 1;
#X connect 0 2 1 2;
#X connect 0 3 1 3;
#X connect 0 4 1 4;
#X connect 0 5 1 5;
#X connect 0 6 1 6;
#X connect 0 7 1 7;
#X connect 1 0 2 0;
#X connect 1 1 3 0;
#X connect 1 2 4 0;
#X connect 1 3 5 0;
#X connect 1 4 6 0;
#X connect 1 5 7 0;
#X connect 8 0 0 0;
#X restore 49 210 pd analog-sensor-readings;
#X obj 49 188 route analog;
#X floatatom 49 232 5 0 0 0 - - -;
#X msg 49 146 analogIns 0 1;
#X obj 49 72 loadbang;
#X text 19 122 minimalistic code to get the A0 value;
#X obj 728 101 t f b;
#X obj 743 127 f;
#X obj 728 150 -;
#X text 109 73 loadbang sends a bang when sketch starts;
#X obj 49 263 s a0;
#X obj 728 49 r a0;
#X floatatom 728 182 5 0 0 0 - - -;
#X msg 48 357 \; pd dsp 1;
#X obj 48 327 loadbang;
#X text 734 86 rate of change;
#X obj 608 152 r a0;
#X obj 608 349 dac~;
#X obj 608 204 + 100;
#X obj 728 209 * 500;
#X msg 805 255 \$1 100;
#X obj 805 208 abs;
#X obj 608 177 * 800;
#N canvas 1543 234 887 452 potfm 0;
#X obj 201 71 inlet;
#X obj 297 72 inlet;
#X obj 240 267 osc~;
#X obj 258 165 osc~;
#X obj 244 242 +~;
#X obj 259 214 *~;
#X obj 314 173 * 10;
#X obj 294 368 outlet~;
#X connect 0 0 4 0;
#X connect 1 0 3 0;
#X connect 1 0 6 0;
#X connect 2 0 7 0;
#X connect 3 0 5 0;
#X connect 4 0 2 0;
#X connect 5 0 4 1;
#X connect 6 0 5 1;
#X restore 608 261 pd potfm;
#X obj 804 279 line~ 100;
#X obj 607 301 *~;
#X text 805 294 volume control (play only when pot moves);
#X text 541 245 carrier freq;
#X text 653 245 modulation freq;
#X obj 805 231 > 0.001;
#X text 599 12 HERE IS THE POT-SYNTHESIZER PART;
#X text 40 24 HERE ARE THE THINGS YOU NEED TO HAVE YOUR PD PATCH RUNNING
WITH SOUND AND ARDUINO "STANDALONE";
#X text 44 389 this message turns on the audio in puredata (DSP);
#X text 116 166 argument 0 is serial port number;
#X msg 156 147 devices;
#X text 115 100 wait for arduino connection;
#X obj 49 99 delay 3000;
#X connect 0 0 2 0;
#X connect 1 0 3 0;
#X connect 2 0 1 0;
#X connect 3 0 11 0;
#X connect 4 0 0 0;
#X connect 5 0 37 0;
#X connect 7 0 8 1;
#X connect 7 0 9 0;
#X connect 7 1 8 0;
#X connect 8 0 9 1;
#X connect 9 0 13 0;
#X connect 12 0 7 0;
#X connect 13 0 20 0;
#X connect 13 0 22 0;
#X connect 15 0 14 0;
#X connect 17 0 23 0;
#X connect 19 0 24 0;
#X connect 20 0 24 1;
#X connect 21 0 25 0;
#X connect 22 0 30 0;
#X connect 23 0 19 0;
#X connect 24 0 26 0;
#X connect 25 0 26 1;
#X connect 26 0 18 0;
#X connect 26 0 18 1;
#X connect 30 0 21 0;
#X connect 35 0 0 0;
#X connect 37 0 4 0;
